<svg height="511pt" viewBox="0 0 511.98624 511" width="511pt" xmlns="http://www.w3.org/2000/svg"><path d="m364.546875 154.003906h38.75c5.929687 13.761719 17.820313 24.066406 32.289063 27.980469 4.804687 1.421875 9.792968 2.144531 14.804687 2.148437 7.898437.058594 15.683594-1.871093 22.640625-5.605468 8.832031-4.664063 15.429688-12.671875 18.3125-22.238282 4.140625-17.160156-3.144531-35.046874-18.09375-44.433593 16.296875-10 24.441406-29.246094 20.269531-47.90625-2.855469-9.550781-9.421875-17.558594-18.226562-22.230469-11.554688-6.03125-25.027344-7.257812-37.480469-3.410156-15.59375 4.3125-28.382812 15.484375-34.757812 30.359375h-39.933594c-52.0625-29.070313-96.726563-51.820313-132.660156-67.550781-.339844-.09375-.683594-.167969-1.03125-.21875-.324219-.152344-.660157-.277344-1-.386719-.230469 0-.425782 0-.648438 0-.597656-.039063-1.199219-.015625-1.792969.070312-.507812.050781-1.015625.144531-1.507812.28125-.5.171875-.984375.394531-1.441407.65625-.503906.253907-.984374.558594-1.425781.90625-.363281.324219-.699219.683594-1 1.066407-.402343.457031-.753906.957031-1.050781 1.492187-.09375.1875-.261719.308594-.347656.503906-.09375.335938-.167969.679688-.222656 1.023438-.144532.328125-.273438.664062-.375 1.007812-1.648438 11.109375-11.132813 19.371094-22.367188 19.480469-6.117188.027344-11.960938-2.535156-16.09375-7.046875-.179688-.15625-.371094-.296875-.570312-.425781-.421876-.386719-.878907-.726563-1.367188-1.015625-.480469-.308594-.996094-.5625-1.535156-.761719-.230469-.085938-.398438-.253906-.628906-.316406-.285157-.039063-.570313-.058594-.855469-.058594-1.097657-.195312-2.226563-.164062-3.3125.09375-.523438.128906-1.03125.300781-1.527344.519531-.515625.234375-1.007813.519531-1.464844.855469-.269531.140625-.527343.292969-.777343.460938-.1875.167968-.257813.398437-.425782.578124-.382812.417969-.714844.871094-1 1.359376-.304687.480468-.5625.992187-.769531 1.527343-.082031.230469-.253906.398438-.324219.636719-3.78125 14.578125-16.851562 24.824219-31.914062 25.011719-12.730469-.046875-24.289063-7.453125-29.652344-19.003907-.066406-.144531-.195312-.21875-.273438-.367187-.296874-.496094-.648437-.964844-1.050781-1.390625-.339843-.4375-.722656-.839844-1.140625-1.203125-.128906-.101563-.195312-.246094-.332031-.339844-.332031-.171875-.667969-.324219-1.015625-.453125-.507812-.28125-1.039062-.511718-1.589844-.691406-.519531-.132812-1.054687-.210938-1.59375-.238281-1.128906-.160157-2.28125-.019531-3.335937.410156-.351563.066406-.699219.15625-1.042969.265625-.136719.066406-.222656.195312-.359375.273438-.503906.304687-.976563.660156-1.40625 1.066406-.433594.332031-.828125.710937-1.1875 1.125-.101563.128906-.253906.195312-.347656.332031-4.136719 6-10.96875 9.570313-18.253907 9.53125-9.824218-.054687-18.480468-6.46875-21.394531-15.855469-.050781-.175781-.1875-.289062-.253906-.460937-.234375-.519531-.519531-1.011719-.855469-1.472657-.285156-.492187-.621094-.949218-1.003906-1.367187-.128906-.128906-.171875-.296875-.308594-.417969-.292968-.199218-.597656-.382812-.914062-.546875-.464844-.332031-.960938-.621093-1.484375-.851562-.515625-.210938-1.050781-.363281-1.59375-.460938-.488281-.132812-.992188-.214843-1.496094-.25-.605469.003907-1.207031.066407-1.800781.199219-.339844.015625-.679688.058594-1.015625.117188-.160157.050781-.273438.179687-.433594.238281-.53125.234375-1.035156.519531-1.511719.855469-.484375.285156-.941406.625-1.355468 1.007812-.128907.117188-.296876.167969-.417969.304688-36.289063 40.300781-45.449219 98.1875-23.371094 147.71875 22.078125 49.535156 71.25 81.421874 125.480469 81.375 52.839844 0 174.421875-64.441407 227.175781-93.863282zm78.0625-99.339844c8.097656-2.574218 16.886719-1.847656 24.457031 2.015626 4.820313 2.488281 8.445313 6.804687 10.050782 11.988281 3.695312 12.800781-6.613282 28.417969-21.742188 32.878906-2.125.65625-4.320312 1.078125-6.535156 1.253906-.289063.0625-.574219.140625-.855469.230469-.289063.0625-.554687.15625-.851563.242188-.816406.234374-1.589843.597656-2.289062 1.082031-.296875.21875-.582031.453125-.851562.707031-.371094.34375-.707032.714844-1.007813 1.117188-1.109375 1.230468-1.804687 2.777343-1.988281 4.421874-.367188 4.425782 2.726562 8.394532 7.109375 9.121094 1.703125.292969 3.394531.671875 5.058593 1.144532 15.582032 4.546874 25.335938 18.304687 21.761719 30.652343-1.621093 5.199219-5.265625 9.53125-10.113281 12.015625-7.5625 3.875-16.347656 4.613282-24.449219 2.046875-10.855469-2.652343-19.429687-10.964843-22.414062-21.734375-.097657-.292968-.210938-.578125-.34375-.851562-.152344-.542969-.363281-1.066406-.632813-1.5625-.253906-.472656-.558594-.921875-.902344-1.332032-.339843-.421874-.71875-.808593-1.136718-1.152343-.402344-.324219-.835938-.609375-1.296875-.851563-.488281-.28125-1.011719-.503906-1.550781-.667968-.507813-.15625-1.03125-.261719-1.5625-.316407-.308594-.078125-.621094-.136719-.9375-.175781h-42.789063c-7.371094-6.253906-11.460937-15.550781-11.089844-25.210938-.464843-10.089843 3.992188-19.777343 11.953125-25.992187h41.925782c.335937-.042969.667968-.113281.996093-.203125.707031-.046875 1.398438-.1875 2.066407-.417969.273437-.117187.539062-.253906.792968-.410156.714844-.335937 1.375-.78125 1.953125-1.3125.226563-.246094.441407-.503906.640625-.769531.460938-.519532.851563-1.09375 1.167969-1.707032.207031-.472656.363281-.964843.472656-1.46875.15625-.394531.285157-.804687.382813-1.21875 3.339844-11.703124 12.71875-20.707031 24.550781-23.5625zm-425.558594 55.953126c-.027343-25.519532 8.097657-50.382813 23.195313-70.960938 6.328125 8.175781 15.652344 13.503906 25.910156 14.800781 10.261719 1.300781 20.617188-1.53125 28.789062-7.871093 9.324219 11.914062 23.609376 18.882812 38.738282 18.898437 18.34375-.140625 35.140625-10.292969 43.792968-26.46875 5.730469 3.246094 12.191407 4.984375 18.773438 5.050781 15.550781-.058594 29.617188-9.25 35.917969-23.464844 32.496093 14.652344 71.679687 34.6875 116.726562 59.734376-6.816406 9.042968-10.421875 20.101562-10.238281 31.425781-.183594 11.328125 3.421875 22.390625 10.238281 31.4375-47.886719 26.359375-164.171875 87.601562-211.523437 87.601562-66.386719-.027343-120.214844-53.796875-120.320313-120.183593zm0 0"/><path d="m266.15625 149.128906c-2.425781-4.039062-7.667969-5.34375-11.707031-2.917968-57.175781 34.425781-123.101563 64.222656-178.347657 24.117187-3.8125-2.773437-9.148437-1.929687-11.921874 1.882813-2.769532 3.8125-1.925782 9.152343 1.886718 11.921874 20.058594 14.933594 44.429688 22.925782 69.4375 22.777344 43.382813 0 87.636719-21.890625 127.75-46.03125 1.949219-1.167968 3.351563-3.066406 3.894532-5.269531.546874-2.207031.1875-4.539063-.992188-6.480469zm0 0"/><path d="m401.050781 288.300781c-.957031-20.441406-10.160156-39.617187-25.503906-53.15625-31.515625-26.84375-79.667969-21.015625-81.707031-20.742187-3.226563.320312-5.988282 2.4375-7.136719 5.46875-1.101563 2.949218-.414063 6.269531 1.777344 8.535156.09375.117188 8.882812 12.125 10 59.679688-21.625 5.730468-42.5625 13.800781-62.4375 24.066406-51.566407-72.160156-115.40625-46.933594-116.054688-46.703125-3.074219 1.257812-5.140625 4.191406-5.289062 7.511719-.148438 3.324218 1.648437 6.425781 4.597656 7.957031 28.335937 16.910156 45.328125 47.800781 44.441406 80.785156.019531.304687.019531.609375 0 .914063 0 .332031-.058593.65625-.066406.988281.238281 32.289062-16.644531 62.289062-44.375 78.832031-2.957031 1.523438-4.761719 4.628906-4.617187 7.953125.144531 3.324219 2.207031 6.261719 5.285156 7.527344 8.941406 3.089843 18.355468 4.597656 27.816406 4.460937 21.957031 0 53.574219-7.738281 82.339844-43.355468 20.566406 12.933593 42.664062 23.253906 65.78125 30.71875 13.214844 11.957031 15.007812 32.070312 4.113281 46.171874-2.519531 3.882813-1.484375 9.066407 2.332031 11.683594 5.496094 3.324219 11.835938 4.992188 18.261719 4.804688 3.246094-.007813 6.480469-.371094 9.648437-1.082032 21.582032-4.78125 43.015626-24.671874 63.769532-58.882812 69.972656-19.726562 114.195312-80.742188 116.378906-83.8125 2.242188-3.152344 2.085938-7.417969-.382812-10.394531-29.203126-32.886719-66.910157-57.085938-108.972657-69.929688zm-50.457031 153.214844c-72.261719 0-143.054688-57.539063-165.222656-77.292969 22.722656-17.289062 93.167968-66.007812 165.222656-66.007812 14.261719.054687 28.457031 1.964844 42.222656 5.691406-10.625 22.085938-30.164062 77.433594 8.796875 128-16.285156 6.261719-33.570312 9.515625-51.019531 9.609375zm-42.554688-210.714844c14.574219.09375 39.253907 2.691407 56.480469 17.390625 10.46875 9.300782 17.171875 22.109375 18.832031 36.011719-10.796874-1.996094-21.757812-3.011719-32.742187-3.027344-11.796875.042969-23.566406 1.132813-35.171875 3.25.011719-18.128906-2.480469-36.175781-7.398438-53.625zm-164.054687 47.070313c18.570313-1.03125 48.980469 4.539062 76.859375 42.472656-14.171875 8.015625-27.851562 16.875-40.960938 26.539062-2.972656-26.667968-15.773437-51.269531-35.898437-69.011718zm0 167.648437c18.757813-16.621093 31.148437-39.246093 35.054687-64 11.6875 10.074219 23.9375 19.476563 36.695313 28.160157-26.429687 31.9375-54.394531 36.742187-71.734375 35.839843zm183.339844 48.960938c-2.507813.65625-5.09375.945312-7.679688.855469 5.679688-12.570313 5.859375-26.9375.492188-39.644532 10.050781 1.871094 20.246093 2.835938 30.464843 2.882813 6.699219-.015625 13.386719-.460938 20.027344-1.332031-18.285156 26.042968-33.320312 34.800781-43.304687 37.238281zm90.394531-69.722657c-38.972656-46.722656-17.570312-98.492187-8.535156-115.6875 31.367187 12.121094 59.730468 30.90625 83.132812 55.058594-20.527344 25.03125-45.902344 45.660156-74.597656 60.644532zm0 0"/><path d="m341.316406 316.136719c-70.980468 0-106.9375 35.140625-108.429687 36.632812-3.03125 3.363281-2.90625 8.507813.285156 11.722657 3.1875 3.210937 8.332031 3.375 11.71875.367187.359375-.3125 32.914063-31.65625 96.425781-31.65625 4.714844 0 8.535156-3.820313 8.535156-8.535156 0-4.710938-3.820312-8.53125-8.535156-8.53125zm0 0"/><path d="m432.710938 344.210938c-.425782-.34375-.855469-.683594-1.367188-1.023438-.433594-.335938-.925781-.597656-1.449219-.769531-.511719-.257813-1.0625-.433594-1.628906-.511719-2.785156-.558594-5.664063.304688-7.679687 2.304688-.773438.816406-1.382813 1.769531-1.792969 2.816406-.433594 1.027344-.664063 2.128906-.675781 3.242187.015624.570313.074218 1.140625.171874 1.707031.09375.535157.265626 1.050782.511719 1.535157.1875.542969.445313 1.058593.769531 1.535156.3125.449219.65625.875 1.023438 1.28125 1.625 1.574219 3.792969 2.460937 6.058594 2.472656.539062-.011719 1.078125-.070312 1.613281-.167969.566406-.082031 1.117187-.253906 1.628906-.511718.523438-.171875 1.015625-.433594 1.449219-.769532.488281-.292968.945312-.636718 1.367188-1.023437l1.023437-1.28125c.320313-.476563.578125-.992187.765625-1.535156.25-.480469.421875-1 .503906-1.535157.109375-.5625.167969-1.136718.179688-1.707031-.011719-1.117187-.246094-2.21875-.683594-3.242187-.410156-1.046875-1.019531-2-1.789062-2.816406zm0 0"/></svg>