<svg height="480pt" viewBox="0 0 480 480" width="480pt" xmlns="http://www.w3.org/2000/svg"><path d="m272 400h-64c-8.835938 0-16 7.164062-16 16v56c0 4.417969 3.582031 8 8 8s8-3.582031 8-8v-56h64v56c0 4.417969 3.582031 8 8 8s8-3.582031 8-8v-56c0-8.835938-7.164062-16-16-16zm0 0"/><path d="m464 344h-48v-80c0-8.835938-7.164062-16-16-16h-56v-48c-.003906-1.132812-.25-2.25-.71875-3.28125l-31.28125-70.398438v-22.320312h72c3.230469-.015625 6.132812-1.972656 7.359375-4.960938 1.253906-2.976562.589844-6.417968-1.679687-8.71875l-26.398438-26.320312 26.398438-26.320312c2.269531-2.300782 2.933593-5.742188 1.679687-8.71875-1.226563-2.988282-4.128906-4.945313-7.359375-4.960938h-72c0-13.253906-10.746094-24-24-24s-24 10.746094-24 24v96h-32v-16c0-26.507812-21.492188-48-48-48s-48 21.492188-48 48v144h-56c-8.835938 0-16 7.164062-16 16v80h-48c-8.835938 0-16 7.164062-16 16v112c0 4.417969 3.582031 8 8 8s8-3.582031 8-8v-64h48v64c0 4.417969 3.582031 8 8 8s8-3.582031 8-8v-64h56v64c0 4.417969 3.582031 8 8 8s8-3.582031 8-8v-336h88v64c0 4.417969 3.582031 8 8 8h48c4.417969 0 8-3.582031 8-8s-3.582031-8-8-8h-40v-56h42.800781l29.199219 65.679688v270.320312c0 4.417969 3.582031 8 8 8s8-3.582031 8-8v-64h56v64c0 4.417969 3.582031 8 8 8s8-3.582031 8-8v-64h48v64c0 4.417969 3.582031 8 8 8s8-3.582031 8-8v-112c0-8.835938-7.164062-16-16-16zm-99.28125-304-18.398438 18.320312c-1.515624 1.5-2.367187 3.546876-2.367187 5.679688s.851563 4.179688 2.367187 5.679688l18.398438 18.320312h-52.71875v-48zm-284.71875 304v-32h56v32zm56-48h-16v-32h16zm-56-32h24v32h-24zm-64 96h48v32h-48zm64 0h16v32h-16zm32 32v-32h24v32zm40-272v-16c0-17.671875 14.328125-32 32-32s32 14.328125 32 32v16zm128 0v-96c0-4.417969 3.582031-8 8-8s8 3.582031 8 8v96zm64 224v-32h16v32zm32-32h24v32h-24zm24-48v32h-56v-32zm-56 96h56v32h-56zm72 0h16v32h-16zm32 32v-32h16v32zm0 0"/><path d="m304 240c4.417969 0 8-3.582031 8-8s-3.582031-8-8-8h-128c-4.417969 0-8 3.582031-8 8v32c0 4.417969 3.582031 8 8 8h128c4.417969 0 8-3.582031 8-8s-3.582031-8-8-8h-120v-16zm0 0"/><path d="m304 296h-128c-4.417969 0-8 3.582031-8 8v32c0 4.417969 3.582031 8 8 8h128c4.417969 0 8-3.582031 8-8v-32c0-4.417969-3.582031-8-8-8zm-8 32h-112v-16h112zm0 0"/><path d="m296 368h-112c-4.417969 0-8 3.582031-8 8s3.582031 8 8 8h112c4.417969 0 8-3.582031 8-8s-3.582031-8-8-8zm0 0"/><path d="m176 200h40c4.417969 0 8-3.582031 8-8v-32c0-4.417969-3.582031-8-8-8h-40c-4.417969 0-8 3.582031-8 8v32c0 4.417969 3.582031 8 8 8zm8-32h24v16h-24zm0 0"/></svg>